<?xml version="1.0" encoding="UTF-8" standalone="no"?>
<!-- Created with Inkscape (http://www.inkscape.org/) -->

<svg
   viewBox="0 0 1403 935"
   height="935"
   width="1403"
   id="svg55"
   version="1.1"
   xmlns:xlink="http://www.w3.org/1999/xlink"
   xmlns="http://www.w3.org/2000/svg"
   xmlns:svg="http://www.w3.org/2000/svg">
  <defs
     id="defs59" />
  <g
     id="g61">
    <image
       width="1403"
       height="935"
       preserveAspectRatio="none"
       style="image-rendering:optimizeSpeed"
       xlink:href="../../../%D0%98%D0%B7%D0%BE%D0%B1%D1%80%D0%B0%D0%B6%D0%B5%D0%BD%D0%B8%D1%8F/MxnqOGnBlrU.jpg"
       id="image63" />
    <g
       id="g16345">
      <path
         style="fill:#fdfdfd"
         d="M 701.5 935 L 0 935 L 0 467.5 L 0 0 L 701.5 0 L 1403 0 L 1403 467.5 L 1403 935 Z"
         id="path16353" />
      <path
         style="fill:#fcab23"
         d="M 489.25 934.989 L 0 935 L 0 467.5 L 0 0 L 701.5 0 L 1403 0 L 1402.94 326.25 L 1402.88 652.5 L 1190.69 793.739 L 978.5 934.979 L 489.25 934.989 Z"
         id="path16351" />
      <path
         style="fill:#ca0000"
         d="M 1.10652 934.434 L 0 935.118 L 0 920.684 L 0 906.249 L 174.75 789.921 C 174.75 789.921 854.783 336.796 854.783 336.796 L 1360.07 0 L 1381.78 0.00641933 L 1403.5 0.0128387 L 702.857 466.882 C 702.857 466.882 1.10652 934.434 1.10652 934.434 Z M 64.7407 935 L 43.6 935 L 44.55 934.095 C 44.55 934.095 723 481.807 723 481.807 C 723 481.807 1401.78 29.636 1401.78 29.636 L 1403.05 28.8484 L 1402.78 43.3131 L 1402.5 57.7779 L 889 400.052 C 889 400.052 230.691 838.663 230.691 838.663 L 85.8814 935 Z M 341.43 935 L 128.987 935 L 529.244 668.169 C 529.244 668.169 1087 296.502 1087 296.502 C 1087 296.502 1323.75 138.83 1323.75 138.83 L 1403 85.9937 L 1402.95 227.747 L 1402.9 369.5 L 978.385 652.25 L 553.874 935 Z M 266.25 700.578 L 0 878 L 0 439 L 0 0 L 658.75 0.00240428 L 1317.5 0.00480856 L 925 261.58 C 925 261.58 266.25 700.578 266.25 700.578 Z M 205 406.876 C 205 406.876 210.849 404.983 210.849 404.983 L 215.198 403.009 L 221.894 396.255 L 228.591 389.5 L 234.914 379.205 L 241.236 368.91 L 247.098 365.951 L 252.959 362.992 L 254.677 360.246 C 254.677 360.246 256.649 357.132 256.649 357.132 C 256.649 357.132 262.202 361.259 262.202 361.259 C 262.202 361.259 273.315 369.449 273.315 369.449 C 273.315 369.449 285.815 375.984 285.815 375.984 C 285.815 375.984 299 380.608 299 380.608 L 305.5 382.393 L 319 382.446 L 332.5 382.5 L 338 381.144 C 338 381.144 351.854 376.259 351.854 376.259 L 360.209 372.731 L 376.354 388.758 C 376.354 388.758 394.684 405.893 394.684 405.893 L 396.869 407 L 400.684 406.996 L 404.5 406.992 L 407.759 405.005 L 411.018 403.018 L 413.005 399.759 L 414.993 396.499 L 414.997 393.184 C 414.997 393.184 413.893 387.684 413.893 387.684 C 413.893 387.684 397.819 370.413 397.819 370.413 L 382.852 355.328 L 388.423 347.562 C 388.423 347.562 396.927 333.648 396.927 333.648 C 396.927 333.648 401.962 319.999 401.962 319.999 L 404.065 312.499 L 404.673 302.923 L 405.281 293.347 L 404.069 284.923 L 402.858 276.499 L 399.871 267.499 L 396.883 258.499 L 392.391 250.041 C 392.391 250.041 382.199 233.563 382.199 233.563 L 376.5 225.543 L 364.5 213.521 L 352.5 201.499 L 342.5 193.886 C 342.5 193.886 324 180.798 324 180.798 C 324 180.798 313.261 174.133 313.261 174.133 L 311.022 172.941 L 321.761 185.804 C 321.761 185.804 340.458 210.002 340.458 210.002 C 340.458 210.002 354.64 232.245 354.64 232.245 C 354.64 232.245 364.502 251.826 364.502 251.826 C 364.502 251.826 370.467 268.503 370.467 268.503 L 372.793 276.507 L 373.893 285.557 L 374.993 294.607 L 373.935 303.053 L 372.876 311.499 L 370.496 317.394 C 370.496 317.394 364.808 328.142 364.808 328.142 C 364.808 328.142 360.663 332.998 360.663 332.998 C 360.663 332.998 318.88 292.295 318.88 292.295 L 277.934 251.59 L 292.669 236.83 C 292.669 236.83 306.952 221.679 306.952 221.679 C 306.952 221.679 283.111 218.653 283.111 218.653 L 259.722 216.017 L 243.161 231.758 C 243.161 231.758 216.746 257 216.746 257 L 206.892 266.5 L 220.95 280.491 L 235.008 294.481 L 247.12 282.37 L 259.231 270.259 L 297.365 308.738 C 297.365 308.738 335.5 348.293 335.5 348.293 L 335.5 349.369 L 330.914 350.539 C 330.914 350.539 319.218 352.41 319.218 352.41 L 312.109 353.11 L 303.938 351.991 L 295.766 350.873 L 288.793 348.357 C 288.793 348.357 276.707 342.827 276.707 342.827 C 276.707 342.827 267.048 335.811 267.048 335.811 L 262.503 331.81 L 259.414 335.384 L 256.325 338.958 L 254.412 337.511 L 252.5 336.064 L 249.807 336.032 L 247.113 336 L 245.782 337.901 L 244.451 339.802 L 240.41 340.89 L 236.37 341.978 L 234.205 344.282 C 234.205 344.282 230.953 349.543 230.953 349.543 L 229.866 352.5 L 218.53 359.913 L 207.194 367.327 L 201.473 372.824 C 201.473 372.824 192.876 382.857 192.876 382.857 L 190 387.392 L 190 392.71 L 190 398.029 L 193.266 401.593 L 196.532 405.157 L 200.016 405.976 C 200.016 405.976 205 406.876 205 406.876 Z M 279.08 159.476 C 279.08 159.476 293 149.534 293 149.534 C 293 149.534 308.705 138.186 308.705 138.186 L 311.909 135.928 L 328.455 147.937 L 345 159.946 L 344.98 158.723 C 344.98 158.723 339.021 139.08 339.021 139.08 L 333.082 120.661 L 334.791 119.371 C 334.791 119.371 351.253 107.29 351.253 107.29 L 366.006 96.5 L 345.58 96.2299 L 325.153 95.9599 L 318.448 75.8427 L 311.742 55.7255 L 305.183 75.843 L 298.623 95.9606 L 278.147 96.2303 L 257.671 96.5 L 273.836 108.319 L 290 120.139 L 290 121.294 C 290 121.294 284.479 139.699 284.479 139.699 C 284.479 139.699 278.309 158.638 278.309 158.638 L 277.66 160.328 Z M 330.704 139.628 C 330.704 139.628 321.147 133.004 321.147 133.004 L 311.794 126.178 L 302.855 132.714 C 302.855 132.714 293.421 138.754 293.421 138.754 C 293.421 138.754 296.037 128.544 296.037 128.544 L 299.149 118.829 L 298.654 117.539 C 298.654 117.539 290.079 110.556 290.079 110.556 C 290.079 110.556 282 103.931 282 103.931 L 282 103 L 293.332 103 L 304.665 103 L 307.972 92.4395 L 311.279 81.8791 L 312.015 82.6895 C 312.015 82.6895 315.958 93.25 315.958 93.25 L 319.165 103 L 328.832 103.137 C 328.832 103.137 340.25 103.267 340.25 103.267 C 340.25 103.267 342 103.932 342 103.932 C 342 103.932 333 110.945 333 110.945 C 333 110.945 324.006 117.393 324.006 117.393 C 324.006 117.393 327.459 128.463 327.459 128.463 C 327.459 128.463 330.704 139.628 330.704 139.628 Z"
         id="path16349" />
      <path
         style="fill:#010000"
         d="M 130.25 848.199 L 0 935.004 L 0.0240433 920.752 L 0.0480867 906.5 L 369.274 660.516 C 369.274 660.516 1049.53 207.245 1049.53 207.245 L 1360.56 -0.0419028 L 1381.47 0.229049 L 1402.38 0.5 L 831.44 380.947 C 831.44 380.947 130.25 848.199 130.25 848.199 Z M 64.6713 934.982 L 43.5 934.963 L 723 482.087 L 1402.5 29.2111 L 1402.78 43.2439 C 1402.78 43.2439 1402.78 57.5186 1402.78 57.5186 C 1402.78 57.5186 744.171 496.38 744.171 496.38 L 85.8425 935 Z M 341.55 934.987 L 129.6 935 L 130.55 934.091 C 130.55 934.091 350 787.769 350 787.769 C 350 787.769 985.75 364.177 985.75 364.177 L 1403 85.9988 L 1403 227.546 L 1403 369.094 L 978.25 652.034 L 553.5 934.975 L 341.55 934.987 Z M 0.632715 877 L 0 877 L 0 863.163 L 0 849.327 L 387.601 590.913 C 387.601 590.913 776.351 332.1 776.351 332.1 C 776.351 332.1 778 331.018 778 331.018 C 778 331.018 837.5 291.18 837.5 291.18 C 837.5 291.18 897.524 251.262 897.524 251.262 C 897.524 251.262 903.187 247.25 903.187 247.25 C 903.187 247.25 908.24 244 908.24 244 C 908.24 244 926.576 232.043 926.576 232.043 C 926.576 232.043 945.524 219.293 945.524 219.293 C 945.524 219.293 951.187 215.25 951.187 215.25 C 951.187 215.25 956.83 212 956.83 212 C 956.83 212 958.167 211.228 958.167 211.228 C 958.167 211.228 969.5 203.215 969.5 203.215 C 969.5 203.215 981.5 195.222 981.5 195.222 C 981.5 195.222 988 191 988 191 C 988 191 994.5 186.759 994.5 186.759 C 994.5 186.759 1009 177.006 1009 177.006 C 1009 177.006 1024 167.031 1024 167.031 C 1024 167.031 1029 163.688 1029 163.688 C 1029 163.688 1036.5 158.684 1036.5 158.684 C 1036.5 158.684 1041.5 155.264 1041.5 155.264 C 1041.5 155.264 1046.5 151.913 1046.5 151.913 C 1046.5 151.913 1060.98 142.413 1060.98 142.413 C 1060.98 142.413 1072.48 134.736 1072.48 134.736 C 1072.48 134.736 1081 129.002 1081 129.002 C 1081 129.002 1090 123.035 1090 123.035 C 1090 123.035 1105.5 112.789 1105.5 112.789 C 1105.5 112.789 1120.5 102.759 1120.5 102.759 C 1120.5 102.759 1196 52.4132 1196 52.4132 C 1196 52.4132 1272.1 1.40379 1272.1 1.40379 L 1273.7 -0.0406414 L 1295.08 0.229679 L 1316.47 0.5 L 1127.98 126.085 C 1127.98 126.085 470.383 564.335 470.383 564.335 C 470.383 564.335 0.632715 877 0.632715 877 Z"
         id="path16347" />
    </g>
    <path
       style="fill:#000000;fill-opacity:1;stroke-width:0.0105801"
       d="M 704.433 834.438 C 704.433 834.438 712.34 829.169 712.34 829.169 L 720.243 823.905 L 720.246 824.04 C 720.246 824.04 720.235 824.187 720.235 824.187 C 720.235 824.187 712.531 829.322 712.531 829.322 L 704.841 834.444 L 704.634 834.444 C 704.634 834.444 704.433 834.439 704.433 834.439 Z"
       id="path13274" />
    <path
       style="fill:#000000;fill-opacity:1;stroke-width:0.0105801"
       d="M 702.378 827.556 L 702.378 820.668 L 711.313 820.668 L 720.248 820.668 L 720.248 822.281 C 720.248 822.281 720.24 823.899 720.24 823.899 C 720.24 823.899 720.24 823.987 720.24 823.987 C 720.24 823.987 720.242 824.126 720.242 824.126 C 720.242 824.126 720.202 824.207 720.202 824.207 C 720.202 824.207 712.509 829.335 712.509 829.335 L 704.849 834.438 L 704.664 834.441 C 704.664 834.441 704.464 834.438 704.464 834.438 C 704.464 834.438 707.061 832.691 707.061 832.691 C 707.061 832.691 709.663 830.947 709.663 830.947 C 709.663 830.947 707.023 832.705 707.023 832.705 L 704.415 834.444 L 703.397 834.444 L 702.378 834.444 Z M 715.058 827.362 C 715.058 827.362 716.27 826.546 716.27 826.546 C 716.27 826.546 713.831 828.173 713.831 828.173 C 713.831 828.173 713.836 828.175 713.836 828.175 C 713.836 828.175 715.058 827.362 715.058 827.362 Z"
       id="path13313" />
    <path
       style="fill:#000000;fill-opacity:1;stroke-width:0.0105801"
       d="M 702.378 827.556 L 702.378 820.668 L 711.313 820.668 L 720.248 820.668 L 720.248 822.397 C 720.248 822.397 720.24 824.156 720.24 824.156 C 720.24 824.156 711.374 830.092 711.374 830.092 L 704.842 834.444 L 704.654 834.444 C 704.654 834.444 704.459 834.437 704.459 834.437 C 704.459 834.437 705.079 834.012 705.079 834.012 C 705.079 834.012 705.717 833.584 705.717 833.584 C 705.717 833.584 705.04 834.028 705.04 834.028 L 704.415 834.444 L 703.397 834.444 L 702.379 834.444 Z"
       id="path13352" />
    <path
       style="fill:#000000;fill-opacity:1;stroke-width:0.0105801"
       d="M 702.378 827.556 L 702.378 820.668 L 711.313 820.668 L 720.248 820.668 L 720.248 822.403 C 720.248 822.403 720.238 824.164 720.238 824.164 C 720.238 824.164 711.03 830.322 711.03 830.322 L 704.843 834.444 L 704.655 834.444 C 704.655 834.444 704.455 834.432 704.455 834.432 C 704.455 834.432 704.437 834.432 704.437 834.432 C 704.437 834.432 703.404 834.444 703.404 834.444 L 702.378 834.444 Z"
       id="path13391" />
    <path
       style="fill:#000000;fill-opacity:1;stroke-width:0.0105801"
       d="M 703.336 552.117 C 703.336 552.117 720.975 540.357 720.975 540.357 C 720.975 540.357 720.988 540.519 720.988 540.519 L 720.988 540.688 L 712.416 546.404 L 703.843 552.12 L 703.584 552.123 C 703.584 552.123 703.336 552.116 703.336 552.116 Z"
       id="path13430" />
    <path
       style="fill:#000000;fill-opacity:1;stroke-width:0.0105801"
       d="M 703.384 552.116 C 703.384 552.116 712.16 546.235 712.16 546.235 C 712.16 546.235 720.98 540.379 720.98 540.379 C 720.98 540.379 720.988 540.541 720.988 540.541 L 720.988 540.685 L 717.348 543.112 C 717.348 543.112 713.702 545.548 713.702 545.548 C 713.702 545.548 717.329 543.135 717.329 543.135 C 717.329 543.135 720.975 540.706 720.975 540.706 C 720.975 540.706 720.988 546.412 720.988 546.412 L 720.988 552.126 L 712.204 552.124 C 712.204 552.124 703.384 552.116 703.384 552.116 Z"
       id="path13469" />
    <path
       style="fill:#000000;fill-opacity:1;stroke-width:0.0105801"
       d="M 703.743 552.193 C 703.743 552.193 703.843 552.123 703.843 552.123 C 703.843 552.123 703.648 552.12 703.648 552.12 C 703.648 552.12 703.395 552.118 703.395 552.118 L 703.349 552.109 L 712.16 546.235 C 712.16 546.235 720.98 540.374 720.98 540.374 C 720.98 540.374 720.975 540.698 720.975 540.698 C 720.975 540.698 720.975 540.705 720.975 540.705 C 720.975 540.705 720.988 546.475 720.988 546.475 L 720.988 552.252 L 712.321 552.252 L 703.653 552.252 Z"
       id="path13508" />
    <path
       style="fill:#000000;fill-opacity:1;stroke-width:0.0105801"
       d="M 703.119 523.837 L 703.119 523.734 L 712.044 517.788 C 712.044 517.788 720.979 511.838 720.979 511.838 C 720.979 511.838 720.989 511.937 720.989 511.937 L 720.989 512.038 L 712.061 517.989 C 712.061 517.989 703.126 523.94 703.126 523.94 C 703.126 523.94 703.119 523.837 703.119 523.837 Z"
       id="path13547" />
    <path
       style="fill:#000000;fill-opacity:1;stroke-width:0.0105801"
       d="M 703.125 523.913 C 703.125 523.913 703.119 517.221 703.119 517.221 L 703.119 510.546 L 712.054 510.546 L 720.989 510.546 L 720.989 511.184 L 720.989 511.823 L 719.428 512.863 C 719.428 512.863 717.868 513.907 717.868 513.907 C 717.868 513.907 719.433 512.871 719.433 512.871 C 719.433 512.871 720.98 511.86 720.98 511.86 C 720.98 511.86 720.989 511.954 720.989 511.954 L 720.989 512.035 L 712.066 517.982 C 712.066 517.982 703.138 523.93 703.138 523.93 C 703.138 523.93 703.126 523.913 703.126 523.913 Z M 705.124 522.403 C 705.124 522.403 705.256 522.306 705.256 522.306 C 705.256 522.306 704.976 522.494 704.976 522.494 C 704.976 522.494 705.124 522.403 705.124 522.403 Z M 712.245 517.655 C 712.245 517.655 712.224 517.662 712.224 517.662 C 712.224 517.662 712.196 517.684 712.196 517.684 C 712.196 517.684 712.245 517.655 712.245 517.655 Z M 713.254 516.986 C 713.254 516.986 713.974 516.498 713.974 516.498 C 713.974 516.498 712.519 517.468 712.519 517.468 C 712.519 517.468 713.254 516.986 713.254 516.986 Z"
       id="path13586" />
    <path
       style="fill:#000000;fill-opacity:1;stroke-width:0.0105801"
       d="M 703.121 495.193 L 703.124 495.053 L 712.054 489.104 L 720.983 483.155 L 720.986 483.289 C 720.986 483.289 720.981 483.43 720.981 483.43 C 720.981 483.43 703.131 495.326 703.131 495.326 C 703.131 495.326 703.122 495.193 703.122 495.193 Z"
       id="path13625" />
    <path
       style="fill:#000000;fill-opacity:1;stroke-width:0.0105801"
       d="M 703.119 495.633 L 703.119 495.342 L 706.057 493.384 C 706.057 493.384 708.985 491.422 708.985 491.422 C 708.985 491.422 706.044 493.382 706.044 493.382 C 706.044 493.382 703.129 495.297 703.129 495.297 C 703.129 495.297 703.127 495.162 703.127 495.162 L 703.131 495.051 L 712.051 489.108 L 720.972 483.165 L 720.98 483.247 C 720.98 483.247 720.963 483.439 720.963 483.439 C 720.963 483.439 720.968 483.441 720.968 483.441 C 720.968 483.441 720.987 489.675 720.987 489.675 L 720.987 495.924 L 712.052 495.924 L 703.117 495.924 Z"
       id="path13664" />
    <path
       style="fill:#000000;fill-opacity:1;stroke-width:0.0105801"
       d="M 703.119 466.581 L 703.119 466.458 L 712.049 460.507 C 712.049 460.507 720.984 454.556 720.984 454.556 C 720.984 454.556 720.989 454.676 720.989 454.676 L 720.989 454.796 L 712.067 460.741 C 712.067 460.741 703.132 466.695 703.132 466.695 C 703.132 466.695 703.119 466.581 703.119 466.581 Z"
       id="path13703" />
    <path
       style="fill:#000000;fill-opacity:1;stroke-width:0.0105801"
       d="M 703.125 466.675 C 703.125 466.675 703.118 466.56 703.118 466.56 L 703.118 466.462 L 705.234 465.052 C 705.234 465.052 707.35 463.637 707.35 463.637 C 707.35 463.637 705.234 465.041 705.234 465.041 C 705.234 465.041 703.131 466.442 703.131 466.442 C 703.131 466.442 703.118 459.953 703.118 459.953 L 703.118 453.456 L 712.053 453.456 L 720.988 453.456 L 720.988 454.001 L 720.988 454.546 L 720.176 455.086 C 720.176 455.086 719.359 455.64 719.359 455.64 C 719.359 455.64 720.166 455.104 720.166 455.104 C 720.166 455.104 720.973 454.57 720.973 454.57 C 720.973 454.57 720.988 454.679 720.988 454.679 L 720.988 454.794 L 712.088 460.724 C 712.088 460.724 703.16 466.673 703.16 466.673 C 703.16 466.673 703.125 466.675 703.125 466.675 Z M 716.005 457.875 C 716.005 457.875 718.534 456.181 718.534 456.181 C 718.534 456.181 713.461 459.563 713.461 459.563 C 713.461 459.563 713.466 459.565 713.466 459.565 C 713.466 459.565 716.005 457.875 716.005 457.875 Z"
       id="path13742" />
    <path
       style="fill:#000000;fill-opacity:1;stroke-width:0.0105801"
       d="M 703.126 466.684 C 703.126 466.684 703.132 466.449 703.132 466.449 C 703.132 466.449 703.132 466.442 703.132 466.442 C 703.132 466.442 703.118 459.952 703.118 459.952 L 703.118 453.456 L 712.053 453.456 L 720.988 453.456 L 720.988 454 L 720.988 454.545 L 720.779 454.684 C 720.779 454.684 720.56 454.834 720.56 454.834 C 720.56 454.834 720.769 454.702 720.769 454.702 C 720.769 454.702 720.973 454.57 720.973 454.57 C 720.973 454.57 720.988 454.681 720.988 454.681 L 720.988 454.797 L 718.922 456.172 C 718.922 456.172 710.006 462.112 710.006 462.112 C 710.006 462.112 703.144 466.684 703.144 466.684 C 703.144 466.684 703.125 466.684 703.125 466.684 Z"
       id="path13781" />
    <path
       style="fill:#000000;fill-opacity:1;stroke-width:0.0105801"
       d="M 703.119 437.994 L 703.119 437.893 L 712.054 431.936 L 720.988 425.979 L 720.988 426.088 L 720.988 426.196 L 712.063 432.142 C 712.063 432.142 703.128 438.092 703.128 438.092 C 703.128 438.092 703.119 437.994 703.119 437.994 Z"
       id="path13820" />
    <path
       style="fill:#000000;fill-opacity:1;stroke-width:0.0105801"
       d="M 703.119 438.587 L 703.119 438.108 L 704.6 437.12 C 704.6 437.12 706.081 436.129 706.081 436.129 C 706.081 436.129 704.596 437.112 704.596 437.112 C 704.596 437.112 703.131 438.078 703.131 438.078 C 703.131 438.078 703.12 437.984 703.12 437.984 L 703.116 437.898 L 712.047 431.944 C 712.047 431.944 720.983 425.99 720.983 425.99 C 720.983 425.99 720.988 432.529 720.988 432.529 L 720.988 439.067 L 712.053 439.067 L 703.118 439.067 Z M 710.723 433.039 C 710.723 433.039 710.691 433.053 710.691 433.053 C 710.691 433.053 710.631 433.097 710.631 433.097 C 710.631 433.097 710.723 433.039 710.723 433.039 Z M 711.562 432.483 C 711.562 432.483 711.868 432.27 711.868 432.27 C 711.868 432.27 711.239 432.69 711.239 432.69 C 711.239 432.69 711.562 432.483 711.562 432.483 Z M 719.161 427.42 C 719.161 427.42 719.2 427.389 719.2 427.389 C 719.2 427.389 719.171 427.403 719.171 427.403 C 719.171 427.403 719.063 427.479 719.063 427.479 C 719.063 427.479 719.161 427.42 719.161 427.42 Z"
       id="path13859" />
    <path
       style="fill:#000000;fill-opacity:1;stroke-width:0.0105801"
       d="M 702.738 409.586 L 702.738 409.474 L 711.668 403.523 C 711.668 403.523 720.603 397.572 720.603 397.572 C 720.603 397.572 720.608 397.682 720.608 397.682 L 720.608 397.791 L 711.688 403.736 C 711.688 403.736 702.753 409.689 702.753 409.689 C 702.753 409.689 702.738 409.586 702.738 409.586 Z"
       id="path13898" />
    <path
       style="fill:#000000;fill-opacity:1;stroke-width:0.0105801"
       d="M 702.744 409.669 C 702.744 409.669 702.738 402.893 702.738 402.893 L 702.738 396.133 L 711.673 396.133 L 720.608 396.133 L 720.608 396.846 L 720.608 397.558 L 716.762 400.122 C 716.762 400.122 712.916 402.69 712.916 402.69 C 712.916 402.69 716.769 400.128 716.769 400.128 C 716.769 400.128 720.592 397.587 720.592 397.587 C 720.592 397.587 720.608 397.685 720.608 397.685 L 720.608 397.789 L 711.693 403.73 C 711.693 403.73 702.765 409.678 702.765 409.678 C 702.765 409.678 702.745 409.669 702.745 409.669 Z"
       id="path13937" />
    <path
       style="fill:#000000;fill-opacity:1;stroke-width:0.0105801"
       d="M 702.745 409.679 C 702.745 409.679 702.738 402.903 702.738 402.903 L 702.738 396.133 L 711.673 396.133 L 720.608 396.133 L 720.608 396.847 L 720.608 397.561 L 720.177 397.848 C 720.177 397.848 719.74 398.148 719.74 398.148 C 719.74 398.148 720.167 397.866 720.167 397.866 C 720.167 397.866 720.593 397.586 720.593 397.586 C 720.593 397.586 720.608 397.685 720.608 397.685 L 720.608 397.791 L 711.707 403.721 C 711.707 403.721 702.779 409.669 702.779 409.669 C 702.779 409.669 702.745 409.679 702.745 409.679 Z"
       id="path13976" />
    <path
       style="fill:#000000;fill-opacity:1;stroke-width:0.0105801"
       d="M 698.76 412.239 L 698.76 412.125 L 700.748 410.8 L 702.737 409.475 L 702.74 409.586 L 702.743 409.697 L 700.751 411.025 L 698.759 412.352 Z"
       id="path14015" />
    <path
       style="fill:#000000;fill-opacity:1;stroke-width:0.0105801"
       d="M 698.76 406.385 L 698.76 400.429 L 707.695 400.429 C 707.695 400.429 716.629 400.437 716.629 400.437 C 716.629 400.437 709.697 405.062 709.697 405.062 C 709.697 405.062 700.767 411.011 700.767 411.011 C 700.767 411.011 698.765 412.342 698.765 412.342 C 698.765 412.342 698.76 406.385 698.76 406.385 Z M 701.685 410.18 C 701.685 410.18 702.706 409.491 702.706 409.491 C 702.706 409.491 700.648 410.863 700.648 410.863 C 700.648 410.863 701.685 410.18 701.685 410.18 Z"
       id="path14054" />
    <path
       style="fill:#000000;fill-opacity:1;stroke-width:0.0105801"
       d="M 698.76 406.386 L 698.76 400.429 L 707.695 400.429 C 707.695 400.429 716.629 400.437 716.629 400.437 C 716.629 400.437 698.77 412.34 698.77 412.34 C 698.77 412.34 698.76 406.386 698.76 406.386 Z"
       id="path14093" />
    <path
       style="fill:#000000;fill-opacity:1;stroke-width:0.0105801"
       d="M 698.76 406.385 L 698.76 400.429 L 707.695 400.429 C 707.695 400.429 716.629 400.437 716.629 400.437 C 716.629 400.437 715.161 401.423 715.161 401.423 C 715.161 401.423 698.767 412.342 698.767 412.342 C 698.767 412.342 698.76 406.385 698.76 406.385 Z"
       id="path14132" />
    <path
       style="fill:#000000;fill-opacity:1;stroke-width:0.0105801"
       d="M 698.76 406.385 L 698.76 400.429 L 707.695 400.429 C 707.695 400.429 716.629 400.437 716.629 400.437 C 716.629 400.437 713.32 402.65 713.32 402.65 C 713.32 402.65 698.767 412.342 698.767 412.342 C 698.767 412.342 698.76 406.385 698.76 406.385 Z"
       id="path14171" />
    <path
       style="fill:#000000;fill-opacity:1;stroke-width:0.0105801"
       d="M 698.76 406.386 L 698.76 400.429 L 707.695 400.429 C 707.695 400.429 716.629 400.437 716.629 400.437 C 716.629 400.437 715.494 401.202 715.494 401.202 C 715.494 401.202 698.774 412.338 698.774 412.338 C 698.774 412.338 698.76 406.386 698.76 406.386 Z"
       id="path14210" />
    <path
       style="fill:#000000;fill-opacity:1;stroke-width:0.0105801"
       d="M 691.629 416.992 L 691.629 416.881 L 695.181 414.513 C 695.181 414.513 698.747 412.137 698.747 412.137 C 698.747 412.137 698.76 412.239 698.76 412.239 L 698.76 412.349 L 695.194 414.726 L 691.629 417.103 Z"
       id="path14249" />
    <path
       style="fill:#000000;fill-opacity:1;stroke-width:0.0105801"
       d="M 691.631 416.986 L 691.634 416.881 L 695.189 414.511 C 695.189 414.511 698.751 412.154 698.751 412.154 C 698.751 412.154 698.759 412.143 698.759 412.143 C 698.759 412.143 695.197 414.495 695.197 414.495 L 691.634 416.87 L 691.631 411.361 C 691.631 411.361 691.632 405.849 691.632 405.849 C 691.632 405.849 700.077 405.848 700.077 405.848 L 708.518 405.851 L 703.648 409.094 C 703.648 409.094 695.208 414.715 695.208 414.715 C 695.208 414.715 691.633 417.093 691.633 417.093 C 691.633 417.093 691.63 416.987 691.63 416.987 Z"
       id="path14288" />
    <path
       style="fill:#000000;fill-opacity:1;stroke-width:0.0105801"
       d="M 683.228 422.587 L 683.229 422.472 L 687.426 419.676 L 691.624 416.879 L 691.627 416.992 C 691.627 416.992 691.627 417.108 691.627 417.108 C 691.627 417.108 683.241 422.693 683.241 422.693 C 683.241 422.693 683.228 422.587 683.228 422.587 Z"
       id="path14327" />
    <path
       style="fill:#000000;fill-opacity:1;stroke-width:0.00689601"
       d="M 272.158 807.037 L 272.158 803.016 L 277.982 803.016 L 283.805 803.016 L 283.805 803.16 L 283.805 803.304 L 277.99 807.176 C 277.99 807.176 272.166 811.053 272.166 811.053 C 272.166 811.053 272.157 807.037 272.157 807.037 Z"
       id="path16717" />
    <path
       style="fill:#000000;fill-opacity:1;stroke-width:0.00689601"
       d="M 233.809 810.053 L 233.809 807.809 L 237.176 805.564 L 240.543 803.32 L 243 803.32 L 245.457 803.32 L 245.457 807.809 L 245.457 812.298 L 239.633 812.298 L 233.809 812.298 Z"
       id="path16756" />
    <path
       style="fill:#000000;fill-opacity:1;stroke-width:0.00689601"
       d="M 208.073 794.182 L 208.073 791.803 L 211.647 791.803 L 215.221 791.803 L 211.65 794.182 C 211.65 794.182 208.077 796.561 208.077 796.561 C 208.077 796.561 208.074 794.182 208.074 794.182 Z"
       id="path16795" />
    <path
       style="fill:#000000;fill-opacity:1;stroke-width:0.00689601"
       d="M 208.074 767.938 L 208.074 767.726 L 213.05 764.412 C 213.05 764.412 218.873 760.535 218.873 760.535 L 219.721 759.972 L 219.723 764.061 L 219.725 768.15 L 213.899 768.15 L 208.074 768.15 Z"
       id="path16834" />
    <path
       style="fill:#000000;fill-opacity:1;stroke-width:0.00689601"
       d="M 208.073 734.929 L 208.073 730.511 L 213.897 730.511 L 219.721 730.511 L 219.72 731.051 L 219.72 731.591 L 213.903 735.466 C 213.903 735.466 208.08 739.344 208.08 739.344 C 208.08 739.344 208.074 734.929 208.074 734.929 Z"
       id="path16873" />
    <path
       style="fill:#000000;fill-opacity:1;stroke-width:0.00689601"
       d="M 208.749 792.092 L 208.749 788.066 L 214.573 788.066 L 220.396 788.066 L 220.396 788.211 L 220.396 788.356 L 217.812 790.077 C 217.812 790.077 215.224 791.803 215.224 791.803 C 215.224 791.803 210.037 795.262 210.037 795.262 L 208.749 796.119 Z"
       id="path16912" />
    <path
       style="fill:#000000;fill-opacity:1;stroke-width:0.0625"
       d="M 160.312 813.95 L 160.312 799.487 L 184.19 783.587 C 184.19 783.587 219.956 759.769 219.956 759.769 L 231.844 751.85 L 248.859 751.847 L 265.875 751.844 L 265.875 754.969 L 265.875 758.094 L 232.641 780.241 C 232.641 780.241 160.381 828.371 160.381 828.371 C 160.381 828.371 160.312 813.95 160.312 813.95 Z"
       id="path17061" />
    <path
       style="fill:#000000;fill-opacity:1;stroke-width:0.0625"
       d="M 195.755 833.195 C 195.755 833.195 265.797 786.507 265.797 786.507 C 265.797 786.507 265.875 800.843 265.875 800.843 L 265.875 815.225 L 252.359 824.222 L 238.844 833.218 L 217.286 833.218 C 217.286 833.218 195.755 833.195 195.755 833.195 Z"
       id="path17100" />
    <path
       style="fill:#000000;fill-opacity:1;stroke-width:2"
       d="M 0.0390246 920.73 L 0.0780492 906 L 679.539 453 L 1359 0 L 1375 -0.627032 C 1375 -0.627032 1395.62 0.461578 1395.62 0.461578 C 1395.62 0.461578 705.62 465.242 705.62 465.242 C 705.62 465.242 5.5 931.883 5.5 931.883 L 0 935.46 Z"
       id="path17329" />
    <path
       style="fill:#000000;fill-opacity:1;stroke-width:2"
       d="M 46 933.005 C 46 933.005 725 480.368 725 480.368 L 1401 29.6053 L 1402.75 37.1481 C 1402.75 37.1481 1403.21 51.5651 1403.21 51.5651 C 1403.21 51.5651 744.38 496.72 744.38 496.72 L 86.8353 935 L 64.9176 934.939 C 64.9176 934.939 46 933.005 46 933.005 Z"
       id="path17368" />
    <path
       style="fill:#000000;fill-opacity:1;stroke-width:2"
       d="M 130.167 934.261 C 130.167 934.261 1401.2 87.6452 1401.2 87.6452 C 1401.2 87.6452 1404 227.876 1404 227.876 L 1404 369.181 L 978.945 652.09 L 553.891 935 L 341.612 935 C 341.612 935 130.167 934.261 130.167 934.261 Z"
       id="path17407" />
    <path
       style="fill:#000000;fill-opacity:1;stroke-width:2"
       d="M 131.1 933.179 C 131.1 933.179 1400.9 87.7606 1400.9 87.7606 C 1400.9 87.7606 1403.92 228.286 1403.92 228.286 L 1403.83 370 L 979.259 652.5 L 554.686 935 L 341.943 935 C 341.943 935 131.1 933.179 131.1 933.179 Z"
       id="path17446" />
    <path
       style="fill:#000000;fill-opacity:1;stroke-width:0.353553"
       d="M 60.8215 822.807 L 60.8319 808.577 L 306.453 644.882 C 306.453 644.882 605.018 445.919 605.018 445.919 L 657.963 410.651 L 657.957 425.059 L 657.951 439.467 L 433.362 589.1 C 433.362 589.1 60.9602 837.038 60.9602 837.038 C 60.9602 837.038 60.8215 822.807 60.8215 822.807 Z"
       id="path17673" />
    <path
       style="fill:#000000;fill-opacity:1;stroke-width:0.353553"
       d="M 60.8112 822.78 L 60.8112 808.522 L 81.4057 794.78 C 81.4057 794.78 657.344 410.963 657.344 410.963 C 657.344 410.963 657.963 425.095 657.963 425.095 L 657.963 439.563 L 571.431 497.189 C 571.431 497.189 289.207 685.201 289.207 685.201 C 289.207 685.201 60.962 837.038 60.962 837.038 C 60.962 837.038 60.8112 822.78 60.8112 822.78 Z"
       id="path17712" />
    <path
       style="fill:#000000;fill-opacity:1;stroke-width:0.353553"
       d="M 60.8112 822.702 L 60.8112 808.367 L 359.181 609.51 C 359.181 609.51 657.761 410.652 657.761 410.652 C 657.761 410.652 657.878 425.176 657.878 425.176 L 657.786 439.7 L 435.224 587.991 C 435.224 587.991 61.0484 837.038 61.0484 837.038 C 61.0484 837.038 60.8112 822.702 60.8112 822.702 Z"
       id="path17751" />
    <path
       style="fill:#000000;fill-opacity:1;stroke-width:0.353553"
       d="M 290.267 659.535 L 290.267 655.273 L 473.645 533.106 C 473.645 533.106 657.568 410.728 657.568 410.728 C 657.568 410.728 713.728 373.551 713.728 373.551 C 713.728 373.551 820.16 302.665 820.16 302.665 C 820.16 302.665 873.896 266.879 873.896 266.879 L 887.419 257.939 L 887.419 272.188 L 887.419 286.438 L 803.796 342.269 C 803.796 342.269 674.623 428.443 674.623 428.443 C 674.623 428.443 489.511 551.808 489.511 551.808 L 321.503 663.796 L 305.885 663.796 L 290.267 663.796 Z"
       id="path17790" />
    <path
       style="fill:#000000;fill-opacity:1;stroke-width:0.353553"
       d="M 290.271 659.465 L 290.274 655.134 L 461.832 540.866 C 461.832 540.866 654.176 412.88 654.176 412.88 C 654.176 412.88 780.572 328.86 780.572 328.86 C 780.572 328.86 886.8 258.225 886.8 258.225 C 886.8 258.225 887.419 272.223 887.419 272.223 L 887.419 286.554 L 804.245 342.044 C 804.245 342.044 709.758 405.133 709.758 405.133 C 709.758 405.133 510.014 538.265 510.014 538.265 L 321.584 663.796 L 305.926 663.796 L 290.267 663.796 L 290.27 659.465 Z"
       id="path17829" />
    <path
       style="fill:#000000;fill-opacity:1;stroke-width:2"
       d="M 0 862.487 L 0 847.737 L 372.5 599.601 C 372.5 599.601 1008.75 176.167 1008.75 176.167 L 1272.5 0.869769 L 1293.39 1.43488 L 1314.28 2 L 858.641 306.191 C 858.641 306.191 2.5 875.775 2.5 875.775 C 2.5 875.775 0 862.487 0 862.487 Z"
       id="path17939" />
    <path
       style="fill:#000000;fill-opacity:1;stroke-width:2"
       d="M 0.412776 861.703 L 1 846.061 L 633 425.406 C 633 425.406 1270 2.37541 1270 2.37541 C 1270 2.37541 1294.89 1 1294.89 1 L 1314.78 2 L 759.888 372.174 C 759.888 372.174 2.41278 875.871 2.41278 875.871 C 2.41278 875.871 0.412776 861.703 0.412776 861.703 Z"
       id="path17978" />
    <path
       style="fill:#000000;fill-opacity:1;stroke-width:2"
       d="M 0.419115 861.298 L 1 845.596 L 319 633.753 C 319 633.753 1255.86 10.9223 1255.86 10.9223 L 1272.73 0.149659 L 1292.79 0.672835 C 1292.79 0.672835 1313.62 1.9552 1313.62 1.9552 C 1313.62 1.9552 1007.69 207.237 1007.69 207.237 C 1007.69 207.237 1.2344 877 1.2344 877 C 1.2344 877 0.419115 861.298 0.419115 861.298 Z"
       id="path18017" />
    <path
       style="fill:#000000;fill-opacity:1;stroke-width:2"
       d="M 0 861.225 L 0 845.45 L 439.5 552.814 C 439.5 552.814 1271.88 0.697626 1271.88 0.697626 C 1271.88 0.697626 1295.52 0.191451 1295.52 0.191451 C 1295.52 0.191451 1311.64 4.0004 1311.64 4.0004 C 1311.64 4.0004 1.18606 877 1.18606 877 C 1.18606 877 0 861.225 0 861.225 Z"
       id="path18056" />
  </g>
</svg>
